HIERARCHY
ROOT Hips
{
	OFFSET 49.148998 1.400851 51.731499
	CHANNELS 6 Xposition Yposition Zposition Xrotation Yrotation Zrotation
	JOINT spine
	{
		OFFSET 0.000000 -0.477352 8.301041
		CHANNELS 3 Xrotation Yrotation Zrotation
		JOINT spine1
		{
			OFFSET 0.000000 -0.000002 10.456497
			CHANNELS 3 Xrotation Yrotation Zrotation
			JOINT spine2
			{
				OFFSET 0.000000 -0.000002 10.019203
				CHANNELS 3 Xrotation Yrotation Zrotation
				JOINT Neck
				{
					OFFSET 0.000000 -1.226414 25.723495
					CHANNELS 3 Xrotation Yrotation Zrotation
					JOINT Head
					{
						OFFSET 0.000000 -0.000001 7.771751
						CHANNELS 3 Xrotation Yrotation Zrotation
						End Site
						{
							OFFSET 0.000000 6.203937 18.812004
						}
					}
				}
				JOINT RightShoulder
				{
					OFFSET -4.218800 0.587437 10.820000
					CHANNELS 3 Xrotation Yrotation Zrotation
					JOINT RightArm
					{
						OFFSET 0.000000 -0.000002 14.191399
						CHANNELS 3 Xrotation Yrotation Zrotation
						JOINT RightArmRoll
						{
							OFFSET 0.000000 -0.000001 7.164078
							CHANNELS 3 Xrotation Yrotation Zrotation
							JOINT RightForeArm
							{
								OFFSET 0.000000 -0.000003 20.866501
								CHANNELS 3 Xrotation Yrotation Zrotation
								JOINT RightForeArmRoll
								{
									OFFSET 0.000000 -0.000001 8.039215
									CHANNELS 3 Xrotation Yrotation Zrotation
									JOINT RightHand
									{
										OFFSET 0.000000 -0.000003 16.132996
										CHANNELS 3 Xrotation Yrotation Zrotation
										End Site
										{
											OFFSET 0.000000 0.000000 0.100006
										}
									}
								}
							}
						}
					}
				}
				JOINT LeftShoulder
				{
					OFFSET 4.218800 0.587437 10.820000
					CHANNELS 3 Xrotation Yrotation Zrotation
					JOINT LeftArm
					{
						OFFSET 0.000000 -0.000002 14.191399
						CHANNELS 3 Xrotation Yrotation Zrotation
						JOINT LeftArmRoll
						{
							OFFSET 0.000000 -0.000001 7.164078
							CHANNELS 3 Xrotation Yrotation Zrotation
							JOINT LeftForeArm
							{
								OFFSET 0.000000 -0.000003 20.866501
								CHANNELS 3 Xrotation Yrotation Zrotation
								JOINT LeftForeArmRoll
								{
									OFFSET 0.000000 -0.000001 8.039215
									CHANNELS 3 Xrotation Yrotation Zrotation
									JOINT LeftHand
									{
										OFFSET 0.000000 -0.000003 16.132996
										CHANNELS 3 Xrotation Yrotation Zrotation
										End Site
										{
											OFFSET 0.000000 0.000000 0.100006
										}
									}
								}
							}
						}
					}
				}
			}
		}
	}
	JOINT RightUpLeg
	{
		OFFSET -7.357731 1.131820 -1.349209
		CHANNELS 3 Xrotation Yrotation Zrotation
		JOINT RightUpLegRoll
		{
			OFFSET 0.000000 -0.000003 18.916798
			CHANNELS 3 Xrotation Yrotation Zrotation
			JOINT RightLeg
			{
				OFFSET 0.000000 0.000004 -23.425598
				CHANNELS 3 Xrotation Yrotation Zrotation
				JOINT RightLegRoll
				{
					OFFSET 0.000000 -0.000004 23.502304
					CHANNELS 3 Xrotation Yrotation Zrotation
					JOINT RightFoot
					{
						OFFSET 0.000000 -0.000003 19.561699
						CHANNELS 3 Xrotation Yrotation Zrotation
						JOINT RightToeBase
						{
							OFFSET 0.000000 -0.000003 16.352600
							CHANNELS 3 Xrotation Yrotation Zrotation
							End Site
							{
								OFFSET 0.006931 0.912835 7.919441
							}
						}
					}
				}
			}
		}
	}
	JOINT LeftUpLeg
	{
		OFFSET 7.357731 1.131820 -1.349209
		CHANNELS 3 Xrotation Yrotation Zrotation
		JOINT LeftUpLegRoll
		{
			OFFSET 0.000000 -0.000003 18.916904
			CHANNELS 3 Xrotation Yrotation Zrotation
			JOINT LeftLeg
			{
				OFFSET 0.000000 -0.000004 23.425499
				CHANNELS 3 Xrotation Yrotation Zrotation
				JOINT LeftLegRoll
				{
					OFFSET 0.000000 -0.000004 23.719498
					CHANNELS 3 Xrotation Yrotation Zrotation
					JOINT LeftFoot
					{
						OFFSET 0.000000 -0.000003 19.344398
						CHANNELS 3 Xrotation Yrotation Zrotation
						JOINT LeftToeBase
						{
							OFFSET 0.000000 -0.000003 16.352600
							CHANNELS 3 Xrotation Yrotation Zrotation
							End Site
							{
								OFFSET -0.031063 0.912836 7.919434
							}
						}
					}
				}
			}
		}
	}
}
MOTION
Frames: 10
Frame Time: 0.041667
48.634708 0.229023 51.851601 -12.082855 0.676998 -0.142024 3.511436 -0.674756 0.122368 11.025873 -1.343946 0.303218 12.671126 -1.340305 0.319276 1.731113 5.242320 -0.587967 -7.632437 -1.736854 -1.262830 -8.483481 -58.866047 -10.009937 -60.688970 -131.976371 -36.532824 0.000000 -0.000001 -0.000001 12.407841 -1.150015 0.970345 -0.000001 0.000002 -3.009370 -5.000228 -7.998925 0.000137 -2.657716 61.692564 3.442591 -62.385138 122.274730 48.721778 0.000001 0.000001 -0.000001 15.361024 6.667253 0.027964 0.000001 -0.000005 3.007370 -5.000232 7.998824 -0.000154 -81.501833 -163.916535 9.167724 -179.999991 0.000004 -1.671000 78.861555 3.862026 2.195921 -0.000001 0.000002 2.296190 73.101261 8.697478 -3.403283 25.465616 -7.346754 0.004572 -82.828092 162.759323 -6.754139 -0.000005 -0.000006 -1.490480 -105.140749 -6.008110 -5.613214 -0.000004 0.000003 -2.655009 73.200524 -7.392877 -0.349936 27.920258 7.340487 -0.312937 
48.644409 0.250679 51.845596 -12.181017 0.659449 -0.128060 3.513254 -0.674276 0.123072 11.029771 -1.343437 0.302753 12.675124 -1.339767 0.318799 1.767263 5.241570 -0.598078 -7.590927 -1.739669 -1.270574 -8.509483 -58.849948 -10.039529 -60.606406 -131.949173 -36.423118 0.000001 0.000000 -0.000001 12.338701 -1.144399 0.971056 -0.000002 0.000001 -3.009370 -5.000222 -7.998924 0.000138 -2.631595 61.699366 3.413053 -62.262625 122.229486 48.589146 0.000001 0.000000 -0.000000 15.306261 6.677898 0.028942 0.000000 -0.000005 3.007370 -5.000230 7.998825 -0.000154 -81.425492 -163.890416 9.161562 -179.999991 0.000005 -1.672995 78.864643 3.874108 2.207894 -0.000001 0.000002 2.296092 73.084001 8.700671 -3.408462 25.465623 -7.346756 0.004574 -82.739122 162.793816 -6.770847 -0.000005 -0.000005 -1.492750 -105.133680 -6.013785 -5.616595 -0.000005 0.000002 -2.653980 73.176325 -7.394424 -0.349565 27.923190 7.340491 -0.313172 
48.648308 0.271823 51.840099 -12.279083 0.641978 -0.114283 3.515175 -0.673758 0.123791 11.033968 -1.342858 0.302287 12.679221 -1.339170 0.318318 1.803170 5.240758 -0.608223 -7.549099 -1.742108 -1.278355 -8.535220 -58.833965 -10.068834 -60.524799 -131.923014 -36.314620 -0.000001 -0.000000 -0.000000 12.268257 -1.138588 0.971779 0.000001 0.000003 -3.009370 -5.000226 -7.998924 0.000139 -2.606304 61.706060 3.384467 -62.140924 122.185418 48.457761 0.000001 0.000000 0.000000 15.249801 6.688949 0.029933 0.000001 -0.000006 3.007370 -5.000229 7.998824 -0.000154 -81.349185 -163.864434 9.155524 -179.999991 0.000005 -1.676000 78.867723 3.886130 2.219762 -0.000000 0.000002 2.295980 73.066720 8.703825 -3.413645 25.465621 -7.346753 0.004572 -82.650371 162.827981 -6.786583 -0.000005 -0.000004 -1.495030 -105.126611 -6.019471 -5.618970 -0.000005 0.000002 -2.652970 73.152897 -7.396027 -0.348949 27.925613 7.340485 -0.313376 
48.654709 0.279242 51.831001 -12.377045 0.624637 -0.100770 3.517166 -0.673212 0.124517 11.038269 -1.342220 0.301852 12.683519 -1.338503 0.317868 1.839149 5.239906 -0.618451 -7.507256 -1.744100 -1.286223 -8.560567 -58.818406 -10.097692 -60.445221 -131.897483 -36.208513 -0.000001 0.000000 0.000000 12.196519 -1.132583 0.972487 -0.000000 0.000001 -3.009360 -5.000223 -7.998925 0.000139 -2.581429 61.712829 3.356387 -62.021485 122.142046 48.328889 0.000001 0.000000 -0.000000 15.191732 6.700148 0.030971 0.000003 -0.000006 3.007370 -5.000230 7.998824 -0.000154 -81.272646 -163.838780 9.150436 -179.999991 0.000007 -1.677994 78.870899 3.898043 2.231518 -0.000001 0.000002 2.295850 73.049297 8.706932 -3.418624 25.465621 -7.346752 0.004571 -82.561469 162.861858 -6.802704 -0.000005 -0.000004 -1.497319 -105.119651 -6.024890 -5.622308 -0.000004 0.000002 -2.651969 73.130350 -7.397615 -0.348273 27.927435 7.340491 -0.313523 
48.659409 0.301072 51.826397 -12.474712 0.607483 -0.087598 3.519214 -0.672646 0.125245 11.042564 -1.341523 0.301481 12.687916 -1.337788 0.317486 1.875528 5.239018 -0.628816 -7.465703 -1.745595 -1.294223 -8.585263 -58.803182 -10.125823 -60.366523 -131.872908 -36.103376 -0.000000 0.000000 -0.000001 12.123577 -1.126362 0.973163 -0.000002 0.000002 -3.009360 -5.000221 -7.998925 0.000137 -2.556581 61.719795 3.328364 -61.904094 122.099207 48.201891 0.000001 -0.000000 -0.000000 15.132344 6.711222 0.032060 0.000001 -0.000005 3.007370 -5.000232 7.998824 -0.000154 -81.196592 -163.813372 9.144377 -179.999991 0.000007 -1.681000 78.874212 3.909749 2.243045 -0.000001 0.000002 2.295687 73.031743 8.709984 -3.423502 25.465618 -7.346754 0.004571 -82.472629 162.895135 -6.818515 -0.000005 -0.000004 -1.499620 -105.112971 -6.030114 -5.625653 -0.000005 0.000002 -2.650980 73.108808 -7.399247 -0.347242 27.928847 7.340479 -0.313662 
48.665207 0.323013 51.822102 -12.572077 0.590572 -0.074842 3.521296 -0.672071 0.125966 11.047064 -1.340766 0.301213 12.692313 -1.337013 0.317203 1.912621 5.238097 -0.639369 -7.424739 -1.746561 -1.302409 -8.609139 -58.788517 -10.153022 -60.288809 -131.849371 -35.999055 0.000001 -0.000000 0.000000 12.049336 -1.119918 0.973771 -0.000000 0.000002 -3.009359 -5.000224 -7.998925 0.000139 -2.531326 61.727370 3.299934 -61.790105 122.056300 48.077965 0.000001 0.000000 0.000001 15.071837 6.721913 0.033223 0.000002 -0.000005 3.007370 -5.000230 7.998825 -0.000154 -81.120750 -163.788387 9.138205 -179.999991 0.000006 -1.682994 78.877777 3.921198 2.254336 -0.000001 0.000002 2.295500 73.013862 8.713044 -3.428249 25.465618 -7.346757 0.004573 -82.383932 162.928002 -6.834372 -0.000005 -0.000006 -1.501910 -105.106482 -6.035100 -5.628974 -0.000005 0.000002 -2.649989 73.088358 -7.400843 -0.346232 27.929557 7.340482 -0.313749 
48.667908 0.339760 51.813599 -12.669145 0.573961 -0.062578 3.523405 -0.671493 0.126675 11.051562 -1.339961 0.301082 12.696812 -1.336190 0.317058 1.950755 5.237161 -0.650166 -7.384672 -1.746928 -1.310805 -8.631956 -58.774420 -10.179014 -60.213957 -131.825807 -35.898238 0.000001 0.000000 -0.000000 11.974093 -1.113225 0.974303 -0.000000 0.000003 -3.009350 -5.000226 -7.998923 0.000137 -2.505244 61.735553 3.270622 -61.676704 122.014281 47.953327 0.000001 0.000000 0.000000 15.010399 6.731933 0.034469 0.000001 -0.000006 3.007370 -5.000228 7.998824 -0.000154 -81.045269 -163.764044 9.131960 -179.999991 0.000007 -1.685003 78.881459 3.932368 2.265295 -0.000000 0.000002 2.295277 72.995639 8.716109 -3.432870 25.465618 -7.346755 0.004574 -82.295180 162.960090 -6.850646 -0.000005 -0.000006 -1.504190 -105.100280 -6.039894 -5.631274 -0.000004 0.000002 -2.649000 73.069213 -7.402432 -0.344935 27.929654 7.340486 -0.313807 
48.666607 0.331140 51.796101 -12.765711 0.557708 -0.050882 3.525513 -0.670922 0.127364 11.055956 -1.339116 0.301120 12.701310 -1.335318 0.317083 1.990259 5.236218 -0.661257 -7.345803 -1.746655 -1.319475 -8.653545 -58.761005 -10.203593 -60.140075 -131.803253 -35.798043 -0.000001 -0.000000 -0.000001 11.897849 -1.106280 0.974723 -0.000001 0.000002 -3.009347 -5.000221 -7.998925 0.000139 -2.477935 61.744657 3.239984 -61.566506 121.972043 47.830719 0.000000 0.000001 0.000001 14.948224 6.741037 0.035821 0.000003 -0.000006 3.007369 -5.000230 7.998825 -0.000154 -80.970151 -163.740385 9.125646 -179.999991 0.000007 -1.686999 78.885543 3.943102 2.275901 -0.000001 0.000002 2.295011 72.976979 8.719197 -3.437450 25.465619 -7.346756 0.004574 -82.207050 162.991304 -6.865633 -0.000005 -0.000005 -1.506470 -105.094468 -6.044254 -5.635557 -0.000003 0.000002 -2.647992 73.051380 -7.404005 -0.343447 27.929048 7.340485 -0.313805 
48.670509 0.352402 51.786995 -12.861782 0.541869 -0.039828 3.527613 -0.670367 0.128026 11.060355 -1.338223 0.301365 12.705604 -1.334407 0.317312 2.031436 5.235276 -0.672695 -7.308437 -1.745691 -1.328464 -8.673708 -58.748376 -10.226546 -60.068017 -131.781069 -35.699684 0.000001 0.000000 -0.000001 11.820508 -1.099055 0.975012 -0.000002 0.000003 -3.009350 -5.000225 -7.998923 0.000138 -2.448955 61.754780 3.207532 -61.459449 121.929450 47.709633 -0.000000 -0.000001 -0.000000 14.885405 6.748947 0.037305 -0.000000 -0.000005 3.007370 -5.000232 7.998823 -0.000154 -80.895237 -163.717708 9.120159 -179.999991 0.000009 -1.689005 78.890003 3.953392 2.285947 -0.000001 0.000002 2.294680 72.957868 8.722275 -3.441899 25.465619 -7.346754 0.004574 -82.119187 163.021698 -6.880789 -0.000005 -0.000006 -1.508730 -105.089140 -6.048480 -5.638813 -0.000005 0.000002 -2.646967 73.035158 -7.405484 -0.341843 27.927739 7.340487 -0.313772 
48.674507 0.359956 51.780697 -12.957157 0.526506 -0.029490 3.529673 -0.669836 0.128655 11.064651 -1.337290 0.301849 12.709899 -1.333458 0.317784 2.074625 5.234356 -0.684535 -7.272873 -1.743974 -1.337814 -8.692191 -58.736567 -10.247576 -59.997836 -131.759321 -35.603112 0.000001 -0.000000 -0.000000 11.742263 -1.091555 0.975147 0.000000 0.000002 -3.009349 -5.000220 -7.998923 0.000138 -2.417903 61.766241 3.172817 -61.354012 121.886925 47.587878 0.000001 0.000000 0.000000 14.822236 6.755382 0.038922 0.000001 -0.000005 3.007369 -5.000230 7.998823 -0.000154 -80.821198 -163.695865 9.113515 -179.999991 0.000005 -1.690999 78.894846 3.963187 2.295432 -0.000001 0.000002 2.294290 72.938292 8.725349 -3.446307 25.465619 -7.346755 0.004572 -82.031781 163.050959 -6.895309 -0.000004 -0.000005 -1.510970 -105.084188 -6.052558 -5.641093 -0.000005 0.000002 -2.645929 73.020439 -7.406932 -0.340033 27.925712 7.340484 -0.313704 
